<?xml version="1.0" encoding="utf-8"?>
<!-- Generator: Adobe Illustrator 27.0.0, SVG Export Plug-In . SVG Version: 6.00 Build 0)  -->
<svg version="1.1"
	 id="svg15" xmlns:svg="http://www.w3.org/2000/svg" xmlns:inkscape="http://www.inkscape.org/namespaces/inkscape" xmlns:rdf="http://www.w3.org/1999/02/22-rdf-syntax-ns#" xmlns:dc="http://purl.org/dc/elements/1.1/" xmlns:cc="http://creativecommons.org/ns#" xmlns:sodipodi="http://sodipodi.sourceforge.net/DTD/sodipodi-0.dtd"
	 xmlns="http://www.w3.org/2000/svg" xmlns:xlink="http://www.w3.org/1999/xlink" x="0px" y="0px" viewBox="0 0 64 41.1"
	 style="enable-background:new 0 0 64 41.1;" xml:space="preserve">
<style type="text/css">
	.st0{fill:#F9DDC0;}
</style>
<sodipodi:namedview  bordercolor="#666666" borderopacity="1" gridtolerance="10" guidetolerance="10" id="namedview17" inkscape:current-layer="svg15" inkscape:cx="44" inkscape:cy="17.5" inkscape:pageopacity="0" inkscape:pageshadow="2" inkscape:window-height="1001" inkscape:window-maximized="1" inkscape:window-width="1920" inkscape:window-x="-9" inkscape:window-y="-9" inkscape:zoom="3.8522727" objecttolerance="10" pagecolor="#ffffff" showgrid="false">
	</sodipodi:namedview>
<path class="st0" d="M49.4,0h-4.2H3.4C1.5,0,0,1.5,0,3.4v31c0,3.7,3,6.7,6.7,6.7h31.8c3.7,0,6.7-3,6.7-6.7V30h4.2
	C57.5,30,64,23.5,64,15.4v-0.9C64,6.5,57.5,0,49.4,0z M34,21.1c-2,3.2-6.1,7.2-12.3,12c-6.2-4.8-10.3-8.8-12.3-12
	c-3.1-4.7-0.9-12,4.9-12c3.9,0,6.4,1.5,7.4,4.6c1-3,3.5-4.6,7.4-4.6C34.9,9.1,37.1,16.4,34,21.1z M49,22.2h-3.8V7.8H49
	c4,0,7.2,3.2,7.2,7.2S53,22.2,49,22.2z"/>
</svg>
