<?xml version="1.0" encoding="UTF-8"?><svg id="Livello_2" xmlns="http://www.w3.org/2000/svg" viewBox="0 0 4234.82 1984.46"><g id="Livello_2-2"><g><g><path d="M1599.69,1876.57c-3.91-9.16-9.45-17.11-16.62-23.86-7.17-6.74-15.55-11.93-25.13-15.55-9.59-3.62-20.07-5.43-31.42-5.43h-60.29v150.39h60.71c11.22,0,21.62-1.85,31.21-5.54,9.58-3.69,17.93-8.87,25.03-15.55,7.1-6.68,12.6-14.63,16.51-23.86,3.9-9.23,5.85-19.31,5.85-30.25s-1.95-21.19-5.85-30.35Zm-33.98,54.85c-3.69,6.96-8.95,12.25-15.76,15.87-6.82,3.62-14.77,5.43-23.86,5.43h-26.41v-91.81h26.41c9.09,0,17.01,1.85,23.75,5.54,6.74,3.7,12,8.95,15.76,15.76,3.76,6.82,5.65,14.99,5.65,24.5s-1.85,17.75-5.54,24.71Z"/><polygon points="1841.35 1953.15 1841.35 1982.12 1733.35 1982.12 1733.35 1831.73 1840.29 1831.73 1840.29 1860.49 1766.8 1860.49 1766.8 1891.37 1833.9 1891.37 1833.9 1919.28 1766.8 1919.28 1766.8 1953.15 1841.35 1953.15"/><path d="M2012.19,1984.46c-12.35,0-22.97-2.02-31.85-6.07-8.88-4.05-17.01-10.19-24.39-18.43l21.73-21.51c4.83,5.54,10.19,9.84,16.08,12.89,5.89,3.06,12.75,4.58,20.56,4.58,7.1,0,12.6-1.28,16.51-3.83,3.9-2.56,5.86-6.11,5.86-10.65,0-4.12-1.28-7.46-3.83-10.01-2.56-2.56-5.93-4.76-10.12-6.6-4.19-1.84-8.81-3.62-13.85-5.33-5.04-1.7-10.05-3.65-15.02-5.86-4.97-2.2-9.55-4.97-13.74-8.31-4.19-3.33-7.56-7.53-10.12-12.57-2.56-5.04-3.83-11.4-3.83-19.07,0-9.23,2.24-17.18,6.71-23.86,4.47-6.67,10.68-11.75,18.64-15.23,7.95-3.48,17.11-5.22,27.48-5.22s20.13,1.85,28.86,5.54c8.73,3.69,15.94,8.73,21.62,15.12l-21.73,21.51c-4.55-4.68-9.13-8.16-13.74-10.44-4.62-2.27-9.84-3.41-15.66-3.41s-10.44,1.1-13.85,3.3c-3.41,2.2-5.11,5.36-5.11,9.48,0,3.84,1.28,6.92,3.83,9.27,2.56,2.34,5.93,4.37,10.12,6.07,4.19,1.7,8.8,3.41,13.85,5.11,5.04,1.7,10.05,3.69,15.02,5.96,4.97,2.27,9.55,5.15,13.74,8.63,4.19,3.48,7.56,7.88,10.12,13.21,2.56,5.33,3.83,11.89,3.83,19.7,0,14.35-5.11,25.6-15.34,33.76-10.23,8.17-24.36,12.25-42.39,12.25Z"/><path d="M2197.72,1982.11v-150.39h33.44v150.39h-33.44Z"/><path d="M2513.62,1896.91v4.9c0,18.04-3.23,33.2-9.69,45.48-6.46,12.28-15.41,21.55-26.84,27.8-11.43,6.25-24.6,9.37-39.51,9.37-10.94,0-21.2-1.99-30.78-5.96-9.59-3.98-17.93-9.48-25.03-16.51-7.11-7.03-12.68-15.27-16.72-24.71-4.05-9.44-6.07-19.63-6.07-30.57s2.05-21.09,6.17-30.46c4.12-9.37,9.83-17.57,17.15-24.6,7.31-7.03,15.87-12.5,25.67-16.41,9.8-3.9,20.3-5.85,31.52-5.85,12.92,0,24.68,2.34,35.26,7.02,10.58,4.69,19.35,11.15,26.31,19.39l-22.8,22.79c-4.83-6.25-10.51-10.93-17.04-14.06-6.53-3.12-13.92-4.68-22.15-4.68-8.81,0-16.69,1.95-23.65,5.85-6.96,3.91-12.39,9.38-16.29,16.41-3.91,7.03-5.86,15.23-5.86,24.6s1.92,17.61,5.75,24.71c3.84,7.1,9.09,12.64,15.77,16.62,6.67,3.97,14.34,5.96,23,5.96s16.29-1.67,22.47-5.01c6.18-3.33,10.94-8.16,14.28-14.48,1.38-2.62,2.47-5.48,3.28-8.58l-43.22-.69v-28.33h79.02Z"/><polygon points="2768.6 1831.73 2768.6 1982.12 2744.1 1982.12 2673.81 1892.05 2673.81 1982.12 2640.36 1982.12 2640.36 1831.73 2663.8 1831.73 2735.16 1923.17 2735.16 1831.73 2768.6 1831.73"/></g><path d="M504.64,1022.07c-59.17-4.91-109.21-18.83-150.09-41.74-22.09-12.38-134.29-89.41-105.04-116.38,30.03-27.7,60.14-55.46,92.96-79.79,13.18-9.77,30.51-19.3,45.06-11.71,10.48,5.47,12.86,16.04,18.32,25.42,23.19,39.84,67.6,69.21,111.8,81.55,34.37,9.59,74.82,5.17,100.18-19.94,7.34-7.27,13.28-16.24,15.61-26.31,3.25-14.04-.71-28.67-5.25-42.34-1.67-5.03-3.45-10.1-6.49-14.43-2.34-3.34-5.36-6.14-8.4-8.86-14.35-12.9-28.51-23.93-45.49-32.74-17.4-9.03-35.17-17.36-53.16-25.15-23.47-10.17-46.66-21.5-69.59-34.02-22.93-12.51-43.77-27.6-62.49-45.25-18.74-17.64-33.22-39.05-43.46-64.21-10.23-25.14-13.83-56.1-10.78-92.82,3.67-44.2,17.54-81.39,41.62-111.58,24.07-30.18,55.84-52.02,95.31-65.52,39.46-13.49,84.01-18.19,133.66-14.07,50.32,4.18,95.67,16.85,136.02,38,21.02,11.02,40.96,24.2,58.91,39.74,10.13,8.77,41.14,34.07,36.32,50.22-1.45,4.84-6.05,7.93-10.34,10.61-31.66,19.8-63.32,39.59-94.98,59.39-2.46,1.54-5.01,3.11-7.88,3.53-3.78,.55-7.54-.98-10.92-2.75-20.54-10.75-34.89-30.04-54.76-41.82-21.17-12.55-41.89-19.43-66.7-21.49-19-1.58-41.76-.46-60.22,4.55-13.38,3.64-26.24,11.27-33.22,23.25-7.23,12.41-7.26,28.05-2.89,41.73,4.37,13.68,12.71,25.72,21.64,36.97,5.31,6.69,10.99,13.3,18.25,17.79,11.96,7.4,27.28,11.48,40.11,17.66,15.01,7.22,30.18,14.08,45.46,20.7,23.45,10.16,46.63,21.69,69.54,34.53,22.89,12.86,43.68,28.45,62.37,46.78,18.66,18.34,33.08,40.75,43.2,67.27,10.12,26.52,13.63,58.49,10.53,95.88-5.7,68.7-34.66,120.55-86.87,155.59-52.21,35.05-121.51,48.97-207.87,41.8Z"/><path d="M1892.1,229.03c-2.44,13.23-4.87,26.46-7.31,39.7-12.58,68.3-25.16,136.6-37.74,204.9-16.38,88.96-32.77,177.93-49.15,266.89-7.15,38.82-14.3,77.63-21.45,116.45-3.41,18.51-6.83,36.75-11.57,54.9-4.72,18.06-6.1,36.89-12.12,54.62-1.17,3.45-2.64,7.01-5.54,9.21-4.14,3.14-9.57,2.58-14.4,3.49-5.54,1.04-10.73,2.39-16.41,3.19-14.14,2.01-28.28,4.01-42.41,6.02-8.24,1.17-16.8,2.31-24.73-.18-10.56-3.33-18.08-12.44-24.98-21.11-5.38-6.77-10.81-12.95-14.75-20.57-39.55-76.36-70.82-158.34-105.93-236.84-10.45-23.37-20.9-46.74-31.35-70.11-5.35-11.96-10.69-23.91-16.04-35.87-4.5-10.05-8.23-20.4-14.65-29.32-1.61-2.24-4.04-4.37-6.78-4.02-.46,.06-.93,.2-1.25,.53-.24,.24-.38,.57-.5,.89-1.73,4.46-1.9,9.49-2.92,14.13-1.28,5.78-1.93,11.79-2.89,17.63-1.98,12.04-3.95,24.08-5.93,36.12-1.98,12.04-3.95,24.08-5.93,36.12-1.8,10.95-5.64,23.28-5.64,34.36-13.73,83.62-27.46,167.24-41.19,250.87-3.64,22.16-3.19,61.78-27.92,70.53-10.92,3.86-22.87,2.57-34.44,2.06-18.67-.81-37.53,1.65-56.4,1.74-3.05,.01-6.2,0-9.01-1.17-2.61-1.1-4.71-3.11-6.68-5.15-22.47-23.34-32.96-53.2-46.47-81.89-18.1-38.44-36.2-76.87-54.29-115.31-56.24-119.43-112.47-238.87-168.71-358.3-15.55-33.03-36.47-66.84-40.49-103.54-.22-2-.36-4.11,.46-5.95,1.67-3.78,6.43-4.83,10.52-5.41,16.91-2.38,33.82-4.76,50.72-7.15,28.65-4.04,57.72-8.08,86.4-4.27-1.26-.17,20.72,44.3,23.32,49.82,6.4,13.58,12.4,27.35,18.6,41.02,14.72,32.48,29.45,64.95,44.17,97.43,27.77,61.24,55.53,122.49,83.3,183.73,4.64,10.23,9.76,19.97,14.63,30.01,.61,1.25,1.36,2.63,2.71,3,1.16,.32,2.41-.27,3.21-1.16,.8-.89,1.25-2.04,1.68-3.16,6.38-16.54,7.95-34.12,10.8-51.65,3.02-18.57,6.03-37.14,9.05-55.71,6.03-37.14,12.06-74.29,18.1-111.43,1.93-11.89,3.86-23.77,5.79-35.66,1.85-11.38,5.79-24.15,5.79-35.66,4.32-26.61,8.64-53.21,12.96-79.82,4.14-25.48,.81-58.81,25.77-72.81,10.41-5.84,22.36-8.3,34.16-10.09,23.41-3.56,47.16-4.86,70.81-3.86,3.15,.13,6.35,.32,9.29,1.44,15.03,5.73,14.65,30.18,20.19,43.19,5.38,12.65,11.19,25.13,16.78,37.69,13.69,30.75,27.38,61.5,41.07,92.25,27.54,61.87,55.09,123.73,82.63,185.6,0,6,7.24,16.26,9.72,21.83,3.21,7.2,6.74,14.18,9.99,21.32,1.1,2.43,2.09,5.02,4.02,6.86,1.93,1.84,5.18,2.64,7.26,.98,2.51-2,3.35-15.23,4.02-19.2,.79-4.73,1.58-9.45,2.38-14.18,1.9-11.32,3.8-22.65,5.69-33.97,4.71-28.09,9.42-56.18,14.12-84.27,10.32-61.57,20.64-123.14,30.96-184.7,6.29-37.54,12.58-75.08,18.88-112.63,.22-1.33,.45-2.66,.67-3.99l157.33-20.41Z"/><path d="M2389.89,303.47c-8.02-7.28-19.3-6.98-29.2-10.06-6.68-2.08-14.62-1.93-21.57-2.69-7.41-.81-14.83-1.62-22.24-2.42-16.68-1.82-34.36-5.48-51.13-3.77-4.29,.44-8.71,1.33-12.19,3.89-2.21,1.62-3.91,3.82-5.57,5.99-4.8,6.24-10.9,12.53-14.25,19.59-3.56,7.49-7.58,14.81-11.47,22.17-8.2,15.53-16.41,31.05-24.61,46.58-18.48,34.98-36.96,69.95-55.43,104.93-21.39,40.48-42.77,80.97-64.16,121.45-21.71,41.1-43.42,82.2-65.14,123.3-19.45,36.82-38.91,73.65-58.36,110.47-14.54,27.52-27.63,56.72-43.99,83.21-5.25,8.5-10.75,16.51-14.98,25.63-1.74,3.75-3.22,8.53-.59,11.72,3.36,4.06,12.84,5.93,17.87,7.42,7.91,2.33,17.09,2.22,25.28,3.11,14.97,1.63,29.94,3.26,44.91,4.89,15.01,1.63,29.64,4.81,44.77,5.19,7.68,.19,15.82-1.05,21.78-5.9,2.69-2.19,4.79-5,6.86-7.77,5.17-6.94,11.03-13.71,15.88-20.81,4.78-7.01,8.07-15.58,11.86-23.19,8.03-16.1,15.95-32.26,23.57-48.56,1.87-4.01,4.19-7.32,6.9-10.97,1.02-1.38,2.08-2.78,3.52-3.7,2.24-1.42,5.11-1.46,7.72-1,40.92,7.16,83.36,9.56,124.73,14.07,24.66,2.69,49.33,5.37,73.99,8.06,12.13,1.32,24.25,2.79,36.39,3.96,4.09,.39,7.91-.03,11.95,.08,5.07,.13,9.75,2.31,14.83,2.56,2.37,.11,4.86-.06,6.99,1,6.06,3.02,7.09,11.83,7.67,17.65,.61,6.12,2.25,11.99,3.7,17.97,3.18,13.08,6.37,26.16,9.55,39.23,4.54,18.67,7.84,43.68,24.03,56.51,12.25,9.71,30.13,8.25,44.71,10.24,15.73,2.15,31.62,3.44,47.4,5.16,11.6,1.26,23.2,2.52,34.81,3.79,5.87,.64,21.31,2.68,25.77-2.18,2.18-2.38,1.73-6.09,1.06-9.25-6.56-30.75-14.73-61.14-23.02-91.67-10.28-37.81-20.56-75.62-30.84-113.43-11.97-44.04-23.95-88.08-35.92-132.12-12.21-44.92-24.42-89.83-36.63-134.75-11-40.44-21.99-80.88-32.99-121.33-.23-4.44-2.61-9.61-3.78-13.91-1.39-5.1-2.77-10.2-4.16-15.31-2.77-10.2-5.55-20.41-8.32-30.61-2.77-10.2-5.29-20.51-8.33-30.63-2.86-9.55-7.05-18.85-10.6-28.17-1.87-4.91-3.82-9.94-7.31-13.87-.55-.62-1.12-1.19-1.71-1.73Zm-209.01,428.8c4.83-4.45,6.76-15.24,9.89-21.55,2.99-6.03,5.98-12.06,8.96-18.09,7.39-14.92,14.79-29.85,22.18-44.77,14.83-24.99,26.19-52.86,39.1-78.91,6.67-13.46,13.34-26.92,20.01-40.37,3.21-6.48,9.26-30.26,18.17-31.26,6.22-.7,9.85,30.84,11.43,37.39,9.23,37.94,18.47,75.88,27.7,113.82,4.51,18.53,9.02,37.07,13.53,55.6,1.83,7.52,3.67,15.04,5.49,22.56,2.08,8.62,6.35,18.42,7.44,26.81-22.45,5.4-49.09-1.99-71.67-4.45-19.54-2.13-39.08-4.25-58.61-6.38-8.48-.92-16.97-2.11-25.48-2.77-10.96-.86-17.69-4.78-28.15-7.63Z"/><path d="M3500.68,953.38c-2.52,2.1-5.62,3.46-8.66,4.77-17.28,7.44-30.81,10.71-49.29,13.13-17.33,2.26-34.1,.63-51.26,5.01-8.46,2.16-23.81,7.02-31.43,.83-9.15-7.44-13.98-23.08-15.2-34.27-.86-7.86-3.42-14.62-4.43-22.38-1.27-9.75-2.55-19.51-3.82-29.26-2.49-19.06-4.98-38.13-7.47-57.19-4.98-38.13-9.96-76.26-14.94-114.39-2.74-20.94-5.47-41.89-8.21-62.83-2.33-17.82-2.31-33.26-10.03-49.88-.45-.96-.99-2-1.97-2.39-1.44-.57-2.97,.5-4.1,1.57-9.46,8.92-11.63,20.06-16.6,31.38-3.08,7.01-6.55,13.87-9.81,20.8-2.27,4.81-9.11,14.1-9.11,19.31-16.88,35.77-33.76,71.55-50.63,107.32-7.38,15.64-15.01,31.33-23.48,46.37-16.67,29.63-54.14,29.58-84.01,30.85-5.6,.24-11.26,.47-16.76-.59-24.19-4.65-35.12-26.03-49.69-43.4-11.74-14-23.48-28-35.23-42-18.58-22.15-37.15-44.29-55.73-66.44-9.29-11.07-18.58-22.15-27.86-33.22-5.12-6.1-10.84-20.36-21.19-18.03-2.68,.61-4.39,3.39-4.76,6.11-.37,2.73,.29,5.47,.69,8.19,1.14,7.68,1.03,15.3,2.13,22.96,1.25,8.71,2.28,17.46,3.42,26.19,2.17,16.62,6.7,34.56,6.7,51.3,5.59,42.84,11.19,85.68,16.78,128.52,2.53,19.41,5.07,38.83,7.6,58.24,1.19,9.14,2.98,18.44,3.14,27.66,.19,10.99,4.38,22.39,3.42,33.12-2.48,27.65-52.85,24.88-72.91,27.51-19.17,2.52-40.2,7.65-59.63,6.8-3.63-.16-7.34-.5-10.64-2.03-6.65-3.07-10.36-10.34-11.99-17.48-1.63-7.14-1.68-14.59-3.55-21.66-12.16-46-14.51-96.92-20.7-144.4-10.06-77.03-20.11-154.06-30.17-231.09-.9-6.88-1.8-13.77-2.7-20.65-4.49-34.42-8.99-68.84-13.48-103.26-2.25-17.21-4.49-34.42-6.74-51.63-2.08-15.93-6.26-31.48-8.24-47.6-2.13-17.34-3.09-34.82-2.85-52.29,.05-3.87,.23-7.99,2.4-11.2,6.3-9.33,23.15-10.87,33.09-13.58,20.32-5.55,42.03-7.65,62.96-8.77,1.44-.08,2.93-.15,4.3,.3,1.63,.54,2.93,1.76,4.18,2.94,11.47,10.97,22.63,22.27,33.47,33.87,2.1,2.25,4.2,3.9,6.53,5.81,2.89,2.36,5.18,5.91,7.58,8.76,5.25,6.22,10.49,12.46,15.74,18.67,41.84,49.62,83.69,99.24,125.53,148.87,18.79,22.28,37.58,44.56,56.37,66.85,7.81,9.27,15.63,18.53,23.44,27.8,3.26,3.86,6.34,8.03,9.84,11.67,4.9,5.09,9.64,13.87,15.44,17.55,2.67,1.7,5.97,1.99,9.13,2.24,1.12,.09,2.28,.17,3.35-.18,1.01-.33,1.86-1.02,2.66-1.72,18.82-16.26,28.2-49.46,38.76-71.93,13.2-28.08,26.39-56.16,39.59-84.24,27.28-58.06,54.56-116.11,81.84-174.17,5.2-13,12.02-25.58,17.98-38.26,2.41-5.13,3.46-10.38,6-15.45,3.13-6.27,6.39-12.47,9.77-18.61,1.26-2.28,2.59-4.63,4.68-6.19,2.03-1.52,4.58-2.16,7.07-2.69,5.95-1.27,11.99-1.56,17.95-2.59,4.06-.7,7.88-1.9,12.05-2.44,9.36-1.22,18.71-2.44,28.07-3.66,4.04,0,8.36-1.28,12.47-1.56,5.23-.35,10.48-.54,15.73-.56,3.71-.01,7.59,.1,10.88,1.82,2.41,1.26,4.31,3.29,5.97,5.44,6.68,8.67,8.11,18.12,9.59,28.59,1.76,12.44,3.25,24.92,4.88,37.38,3.25,24.92,6.51,49.84,9.76,74.76,2.57,19.69,5.14,39.37,7.71,59.06,10.7,81.96,21.4,163.93,32.1,245.89,4.94,37.8,9.87,75.6,14.81,113.4,4.95,37.93,12.2,75.18,17.4,112.92,1.08,7.85,1.05,16.8-4.47,22.48-.38,.4-.79,.77-1.21,1.12Z"/><path d="M3668.59,994.16c-1.72-3.27-2.19-7.41-2.36-11.2-1.22-27.8,6.17-52.69,11.22-79.75,5.22-27.97,8.89-56.21,12.56-84.42,4.19-32.16,8.38-64.32,12.57-96.48,11.64-89.33,23.28-178.66,34.91-267.99,5.82-44.66,11.64-89.33,17.46-133.99,.9-6.87-.16-25.87,4.21-31.11,4.75-5.7,15.96-3.81,22.86-3.58,21.35,.7,42.3,5.52,63.4,8.41,9.92,1.36,19.85,2.63,29.76,4,9.43,1.3,18.8,4.71,28.02,7.39,2,.58,4.08,1.21,5.6,2.63,2.25,2.12,2.74,5.46,3.01,8.54,1.15,13,.7,26.14-1.3,39.04-4.77,30.69-10.92,61.04-17.03,91.51-11.46,57.11-15.67,115.28-22.9,172.99-3.72,29.67-8.23,59.27-14.9,88.43-5.57,24.36-2.72,49.23-6.46,74.19-3.2,21.42-4.54,43.21-7.42,64.7-3.81,28.38-8.33,56.67-13.56,84.82-4.73,25.45-7.64,51.04-16.48,75.37-1.35,3.71-2.89,7.59-6,10.01-3.82,2.96-9.08,3.05-13.9,2.69-13.75-1.02-25.2-6.19-38.25-9.52-13.43-3.43-28.5-3.85-42.26-5.73-6.24-.85-12.48-1.72-18.72-2.56-6.25-.84-15.44-.76-20.66-4.42-1.48-1.04-2.58-2.4-3.39-3.95Z"/><path d="M315.98,1090.71l1.09,.36c.3,.08,.6,.17,.89,.26-.66-.19-1.32-.4-1.98-.62Z"/><path d="M440.94,1166.99c-5.43-15.68-14.12-28.44-26.01-38.66-11.74-10.69-25.67-17.91-42.09-21.75l-4.03-.94-3.98-1.13-7.97-2.26-15.91-4.47-15.93-4.47c-.81-.23-1.62-.45-2.45-.68h-.02c-1.53-.41-3.07-.83-4.58-1.3-.3-.09-.6-.17-.89-.26l-1.09-.36-6.8-2.26c-.28-.09-.53-.17-.81-.26l-14.12-4.66-22.13-7.24c-3.41-1.12-7.09,.7-8.28,4.08l-95.68,271.19c-1.23,3.49,.65,7.31,4.16,8.47l28.64,9.44,17.53,5.75c3.74,1.22,7.48,2.48,11.25,3.65,3.49,1.08,7.2-.92,8.25-4.42l26.89-89.58c1.49-4.97,6.8-7.88,11.79-6.47l12.15,3.43,18.4,5.18,9.2,2.58,4.6,1.28,4.64,1.11c19,4.47,37.11,4.73,53.93,.66,16.94-4.52,31.14-13.19,42.5-25.56,11.4-12.42,18.6-28.31,22.03-47.61,3.45-19.3,2.24-36.81-3.2-52.47Zm-59.11,39.73c-2.07,9.14-5.71,16.47-10.95,21.92-5.24,5.5-11.55,9.12-18.87,10.89-3.69,.87-7.43,1.32-11.25,1.28-3.83,0-7.73-.47-11.63-1.64l-30.8-8.65c-3.1-.9-6.21-1.76-9.32-2.63-3.56-.99-5.62-4.72-4.55-8.26l21.31-71.01c1.03-3.44,4.62-5.42,8.09-4.47,2.86,.79,5.72,1.58,8.58,2.41l28.82,8.12c3.66,1.11,7.09,2.34,10.29,3.94,3.2,1.62,6.11,3.62,8.8,6.01,5.35,4.75,9.1,10.74,11.25,17.96,2.15,7.22,2.28,15.27,.26,24.13Z"/><path d="M670.31,1197.92l-5.73-.28-11.48-.55c3.32,11.23,6.71,22.54,10.2,33.81,.28-.68,.53-1.36,.81-2.04l6.03-15.34,5.94-15.49-5.77-.11Z"/><path d="M781.44,1373.11c-10.5-24.99-20.73-50.02-30.65-75.02-9.93-25.05-19.58-49.99-28.91-75.11-8.7-23.58-17.08-47.16-25.16-70.74-1.03-2.99-3.81-5.02-6.97-5.08l-8.79-.16c-4.67-.09-9.37-.13-13.97-.41l-22.52-1.07c-3.15-.15-6.05,1.68-7.28,4.58-20.29,47.79-41.75,94.46-65.03,141.34-6.01,12.1-12.14,24.2-18.36,36.28-6.22,12.01-12.55,23.84-19,35.74-11.09,20.43-22.55,40.82-34.34,61.15-2.73,4.7,.25,10.66,5.65,11.27l26.24,2.96,9.44,1.04,9.39,.75,13.68,1.09c3.08,.24,6-1.42,7.37-4.19,7.11-14.47,14.07-28.91,20.86-43.41,1.33-2.84,4.27-4.56,7.4-4.31l4.33,.34,10.74,.51,42.94,2.02,5.37,.26,5.35,.11,10.69,.21,21.39,.4,12.17,.22c3.1,.06,5.85,2.02,6.92,4.93,5.5,15,11.12,29.96,16.8,44.83,1.12,2.93,3.94,4.86,7.08,4.84l32.19-.15c8.69-.07,17.29-.31,25.89-.54,5.35-.14,8.83-5.65,6.68-10.55-9.36-21.37-18.55-42.76-27.57-64.15Zm-100.16-34.38c-6.94-.19-13.89-.13-20.85-.53l-30.11-1.42c-5.26-.25-8.65-5.67-6.56-10.5,.79-1.82,1.57-3.65,2.36-5.48,8.82-20.41,17.4-40.83,25.71-61.26l3.62-8.86c2.66-6.51,12-6.16,14.16,.53l2.97,9.18c6.75,20.94,13.72,41.88,20.9,62.82,.65,1.89,1.3,3.78,1.95,5.68,1.71,4.95-2.03,10.08-7.26,9.98l-6.87-.13Z"/><path d="M1105.23,1412.08c19.35-17.67,28.07-40.81,26.17-69.44-1.04-15.58-4.47-28.52-10.29-38.81-5.82-10.28-13.16-18.61-22.01-25-8.85-6.38-18.41-11.5-28.66-15.37-10.24-3.87-20.51-7.18-30.8-9.92-10.3-2.74-19.74-5.53-28.32-8.38-8.57-2.87-15.53-6.51-20.91-10.87-5.37-4.37-8.29-10.37-8.76-18.03-.51-8.22,2.48-14.73,8.96-19.55,6.48-4.81,15.44-7.55,27.06-8.34,11.59-.77,22.14,.82,31.63,4.74,6.41,2.65,12.87,6.41,19.4,11.26,5.57,4.14,13.4,3.27,18-1.92l23.04-25.98c5.17-5.83,4.39-14.91-1.85-19.58-9.98-7.48-21.46-13.45-34.45-17.91-18.04-6.18-37.26-8.63-58.18-7.24-10.34,.7-19.89,2.16-28.77,4.45-8.9,2.29-17.16,5.41-24.78,9.37-15.29,7.96-26.81,18.71-34.84,32.5-8.04,13.8-11.62,29.92-10.66,48.35,.8,15.31,3.99,27.88,9.62,37.67,5.62,9.8,12.81,17.81,21.57,24.03,8.75,6.23,18.24,11.14,28.47,14.94,10.22,3.78,20.5,7.06,30.83,9.84,10.33,2.8,19.79,5.69,28.44,8.82,8.63,3.13,15.69,7.07,21.15,11.84,5.46,4.76,8.47,11.25,9.02,19.47,.61,9.07-2.84,16.41-10.35,22.03-7.51,5.62-18.4,8.9-32.67,9.85-15.74,1.01-29.82-1.21-42.08-6.57-8.68-3.8-16.87-8.84-24.61-15.21-5.51-4.54-13.59-4-18.43,1.26-7.82,8.51-15.68,17.01-23.57,25.52-5.17,5.58-4.77,14.42,1.05,19.32,12.96,10.91,26.81,19.16,41.51,24.76,18.58,7.04,40.36,9.7,65.51,8.17,36.34-2.4,64.33-12.42,83.58-30.1Z"/><path d="M1537.69,1354.62c-2.37-2.26-2.87-5.88-1.13-8.65,5.07-8.1,9.37-16.74,12.95-25.92,7.41-19.06,10.91-39.54,10.4-61.39-.53-22.15-5.03-42.56-13.57-61.26-8.54-18.66-20.36-34.93-35.38-48.46-15.04-13.57-32.51-23.92-52.4-31.08-19.85-7.05-41.41-10.01-64.61-9.05-22.92,1-43.9,6.03-63.01,14.74-19.11,8.73-35.49,20.71-49.23,35.51-13.74,14.85-24.07,31.8-30.95,51.02-6.92,19.19-9.69,39.85-8.37,61.97,1.3,21.83,6.56,41.92,15.72,60.3,9.18,18.34,21.3,34.27,36.32,47.65,15.02,13.44,32.29,23.47,51.78,30.5,19.49,7.03,40.28,9.9,62.39,8.95,22.11-.89,42.37-5.77,60.84-14.42,7.59-3.52,14.79-7.56,21.58-12.11,2.68-1.79,6.26-1.44,8.6,.78,12.21,11.58,24.37,23.15,36.44,34.79,2.8,2.7,7.26,2.59,9.92-.25l27.58-29.49c2.6-2.78,2.5-7.12-.23-9.77-11.81-11.46-23.7-22.92-35.64-34.34Zm-132.63,4c-13.25,.53-25.41-1.07-36.51-5.09-11.08-4-20.79-10.01-29.14-17.98-8.35-8.01-14.95-17.66-19.83-29.06-4.88-11.4-7.69-24.18-8.46-38.36-1.02-19,1.87-35.72,8.71-50.19,6.82-14.46,16.81-25.86,29.93-34.34,13.12-8.44,28.74-13.19,46.88-13.95,13.82-.58,26.37,1.11,37.64,5.05,11.25,3.96,21.05,9.88,29.42,18,8.37,8.12,14.89,17.83,19.58,29.18,4.71,11.35,7.26,24.13,7.75,38.32,.39,11.82-.75,22.82-3.4,32.98-1.34,5.14-7.64,7.02-11.52,3.39-12.27-11.46-24.61-22.89-37-34.25-2.84-2.6-7.25-2.41-9.85,.42l-27.71,30.11c-2.61,2.83-2.42,7.25,.42,9.86,13.35,12.27,26.66,24.51,39.92,36.78,3.71,3.43,2.64,9.52-1.98,11.55-10.32,4.52-21.92,7.04-34.83,7.57Z"/><path d="M1875.26,1399.08c18.54-9.72,33.42-23.58,44.61-41.59,11.19-18.04,17.52-38.85,18.78-62.66l8.97-170.02c.36-6.88-4.95-12.77-11.83-13.08-15.08-.7-30.15-1.31-45.22-1.95-6.9-.29-12.72,5.08-12.96,11.98l-6.14,173.96c-.42,11.94-3.26,22.06-8.46,30.61-5.21,8.53-12.07,15.02-20.6,19.49-8.53,4.46-18.36,6.55-29.52,6.25-5.31-.13-10.37-.89-15.21-2.13-4.84-1.23-9.45-3.04-13.83-5.43-8.76-4.79-15.62-11.61-20.59-20.48-4.97-8.86-7.41-19.26-7.3-31.19l1.69-173.77c.07-6.85-5.42-12.49-12.28-12.56-14.93-.14-29.82-.1-44.71-.07-6.88,.01-12.44,5.6-12.42,12.47l.53,169.88c.08,23.86,5.45,45.08,15.97,63.67,10.51,18.64,25.01,33,43.34,43.81,9.17,5.36,19.04,9.42,29.62,12.17,10.58,2.75,21.88,4.14,33.83,4.53,11.97,.32,23.25-.7,33.87-3.04,10.62-2.36,20.58-6.06,29.84-10.86Z"/><path d="M2129.3,1418.3l33.75-276.59c.74-6.04-3.54-11.55-9.57-12.32-2.28-.29-4.56-.57-6.84-.81l-17.66-1.84-24.24-2.51c-6.11-.63-11.57,3.83-12.15,9.94l-26.71,277.36c-.58,6.05,3.83,11.44,9.87,12.07l20.71,2.15,15.82,1.63c1.59,.17,3.17,.36,4.75,.56,6.05,.76,11.54-3.6,12.28-9.64Z"/><path d="M2553.18,1196.28l-22.23,285.35c-.31,3.99-3.79,6.98-7.78,6.68l-6.42-.47-13.59-1.28c-7.96-.73-15.81-1.6-23.63-2.51-2.12-.25-4.03-1.41-5.22-3.18-39.4-58.66-72.53-118.36-104.6-178.36-3.26-6.09-12.38-4.63-13.56,2.18l-26.12,149.46c-.69,3.96-4.46,6.6-8.42,5.91l-51.7-9.11c-3.95-.7-6.59-4.46-5.9-8.41l49.18-281.98c.69-3.96,4.46-6.61,8.42-5.91l35.95,6.34c2.21,.39,4.13,1.79,5.18,3.77,32.17,60.96,63.06,121.7,98.13,181.43,3.51,5.98,12.62,4.12,13.5-2.76l19.6-153.27c.51-3.98,4.15-6.78,8.13-6.29,7.56,.93,15.01,1.73,22.48,2.57l14.59,1.43c2.43,.26,4.86,.43,7.29,.59,4.03,.26,7.04,3.79,6.73,7.82Z"/><path d="M2885.65,1467.3c18.24-12.78,31.62-28.88,39.96-48.61,8.35-19.72,10.85-41.4,7.73-65.05l-22.89-173.54c-.56-4.23-4.44-7.2-8.66-6.64-8.14,1.08-16.27,2.14-24.32,3.06-8.04,.94-16.11,1.95-24.14,2.89-4.22,.49-7.25,4.28-6.79,8.51l19.74,177.82c1.32,11.86-.06,22.35-4.19,31.49-4.14,9.15-10.34,16.5-18.63,22.08-8.26,5.64-18.35,8.87-30.13,9.88-11.21,.92-21.58-.36-31.25-4.46-9.65-4.05-17.39-10.29-23.21-18.73-5.82-8.43-9.04-18.61-9.75-30.52l-10.66-178.1c-.26-4.27-3.94-7.52-8.21-7.24h0s-7.68,.33-7.68,.33l-15.35,.68-15.35,.68-7.46,.14c-4.27,.08-7.66,3.61-7.57,7.88l3.73,174.56c.5,23.85,6.4,44.98,18.24,63.35,11.78,18.16,28.1,32,49,41.55,20.68,9.11,44.67,13.04,70.85,10.56,6.57-.57,12.91-1.45,19.01-2.65,6.06-1.26,11.86-2.88,17.44-4.78,11.14-3.83,21.39-8.78,30.53-15.14Z"/><path d="M3292.22,1411.87c12.06-7.31,22.85-15.72,32.51-25.43,6.3-6.33,5.63-16.75-1.41-22.25-8.73-6.81-17.5-13.61-26.34-20.35-6-4.58-14.43-3.82-19.71,1.58-5.13,5.26-10.95,9.88-17.46,13.87-10.44,6.47-23.16,10.83-38.2,13.11-12.85,1.98-25.02,1.6-36.48-1.21-11.46-2.82-21.76-7.64-30.76-14.56-9.02-6.91-16.61-15.77-22.79-26.59-6.19-10.81-10.39-23.23-12.61-37.26-2.18-13.74-2.01-26.71,.55-38.91,2.54-12.19,7.04-22.97,13.51-32.33,6.48-9.36,14.74-17.08,25.01-23.13,10.24-6.05,21.87-10.11,34.96-12.13,14.85-2.25,28.28-1.84,40.26,1.23,7.59,1.97,14.64,4.78,21.12,8.41,6.52,3.65,14.68,2.01,19.21-3.93,6.85-8.99,13.77-17.93,20.75-26.88,5.62-7.21,3.44-17.78-4.58-22.17-12.19-6.67-25.44-11.75-39.57-15.13-10.02-2.41-20.73-3.84-31.74-4.09-11.04-.27-22.61,.51-34.71,2.34-22.54,3.5-42.92,10.62-60.68,21.35-8.91,5.37-17.11,11.39-24.52,18.07-7.38,6.67-14.02,13.99-19.95,21.97-11.87,15.98-20.21,33.88-25.12,53.74-4.93,19.88-5.75,40.63-2.41,62.24,3.34,21.62,10.39,41.14,21.21,58.57,10.83,17.44,24.52,32.05,40.97,43.81,8.23,5.89,16.95,10.89,26.14,15.01,9.16,4.12,18.75,7.36,28.84,9.72,20.22,4.69,41.11,5.4,63.08,1.99,11.87-1.8,22.89-4.43,33.07-7.91,10.18-3.48,19.39-7.66,27.86-12.77Z"/><path d="M3635.79,1386.08c8.48-3.53,16.61-7.8,24.4-12.8,4.17-2.64,8.22-5.4,12.18-8.36,5.68-4.25,6.63-12.41,2.16-17.92-3.85-4.74-7.75-9.48-11.72-14.13-4.02-4.65-8.09-9.3-12.21-13.95-4.36-4.93-11.81-5.69-17.03-1.67-1.47,1.14-2.98,2.22-4.52,3.26-4.72,3.13-9.82,6.12-15.23,8.47-5.42,2.39-11.27,4.18-17.58,5.35-3.15,.59-6.42,1.02-9.8,1.31-3.4,.38-6.92,.62-10.56,.7-6.2,.15-12.16-.28-17.9-1.29-5.74-.99-11.24-2.65-16.57-4.61-10.65-4.03-19.97-9.98-27.99-17.85-8.01-7.92-14.6-17.37-19.69-28.69-5.09-11.31-8.18-24.05-9.14-38.22-.94-13.88,.4-26.79,4.16-38.73,3.76-11.94,9.43-22.35,17.17-30.91,7.71-8.62,17.28-15.4,28.67-20.36,5.67-2.54,11.75-4.25,18.11-5.52,6.37-1.25,13.05-1.96,20.03-2.11,3.94-.09,7.77-.02,11.47,.2,3.73,.29,7.34,.78,10.83,1.39,6.98,1.24,13.47,3.08,19.45,5.52,5.98,2.47,11.47,5.3,16.52,8.77,2.02,1.4,3.97,2.88,5.83,4.43,4.78,3.96,11.68,4.05,16.34-.05,5.39-4.75,10.83-9.49,16.33-14.23,4.19-3.67,8.43-7.13,12.71-10.61l1.48-1.2c6.16-4.98,6.29-14.42,.15-19.42-.04-.03-.08-.07-.12-.1-4.01-3.26-8.23-6.38-12.6-9.12-8.76-5.57-18.3-10.46-28.59-14.64-5.13-2.04-10.54-4.06-16.04-5.46-5.52-1.47-11.23-2.7-17.15-3.68-11.8-1.92-24.5-3.14-37.64-2.7-12.4,.3-24.38,1.49-35.75,3.81-11.3,2.49-22.08,5.94-32.29,10.34-10.26,4.32-19.56,9.74-28.12,15.78-8.56,6.05-16.33,12.81-23.3,20.28-13.86,15.14-23.9,32.57-30.32,52.1-6.42,19.55-8.39,40.18-6.21,61.96,2.17,21.74,8.17,41.67,17.72,59.77,9.54,18.13,21.79,33.57,36.6,46.57,7.38,6.6,15.19,12.37,23.44,17.31,8.25,4.93,16.98,8.96,26.04,12.53,9.09,3.47,18.44,5.96,28.09,7.44,9.59,1.68,19.44,2.48,29.67,2.22,11.17-.42,21.43-1.05,31.19-3,4.87-.94,9.58-2.12,14.15-3.54,4.57-1.41,8.92-2.83,13.17-4.63Z"/><path d="M3844.71,1408.91l67.39-269.82c1.54-6.16-2.29-12.39-8.48-13.8l-26.75-6.09-9.52-2.14-9.54-1.78-7.88-1.45c-6.18-1.13-12.1,2.97-13.2,9.15l-49.05,273.73c-1.1,6.15,2.98,12.03,9.13,13.15l3.1,.56,7.11,1.29,7,1.61,17.2,3.89c6.01,1.36,12-2.33,13.5-8.31Z"/><g><path d="M708.06,1638.07c-1.52,0-3.06-.22-4.58-.67-4.17-1.25-8.32-2.53-12.47-3.84-8.41-2.67-13.06-11.65-10.4-20.06,2.67-8.41,11.65-13.06,20.06-10.4,3.98,1.26,7.96,2.49,11.96,3.68,8.45,2.53,13.26,11.43,10.73,19.88-2.07,6.93-8.42,11.4-15.3,11.4Z"/><path d="M944.35,1674.74c-.21,0-.42,0-.63-.01-8.71-.34-17.46-.77-25.99-1.28-8.81-.53-15.52-8.1-14.99-16.9,.53-8.81,8.11-15.5,16.9-14.99,8.31,.5,16.83,.92,25.32,1.25,8.82,.34,15.69,7.77,15.34,16.59-.33,8.6-7.42,15.35-15.95,15.35Zm1643.08-4.45c-8.63,0-15.73-6.88-15.96-15.55-.23-8.82,6.73-16.16,15.55-16.39,8.45-.22,16.98-.48,25.56-.78,8.84-.31,16.21,6.6,16.51,15.42,.3,8.82-6.6,16.21-15.42,16.51-8.67,.3-17.27,.56-25.81,.79-.14,0-.29,0-.43,0Zm-1429.27-1.9c-8.21,0-15.2-6.3-15.9-14.63-.74-8.79,5.78-16.52,14.57-17.26,8.46-.71,16.92-1.47,25.4-2.27,8.79-.82,16.58,5.63,17.4,14.41,.83,8.78-5.63,16.58-14.41,17.4-8.57,.81-17.14,1.57-25.69,2.29-.46,.04-.91,.06-1.36,.06Zm1215.43-3.33c-.54,0-1.09-.03-1.65-.08-8.34-.85-17.03-1.83-25.84-2.89-8.76-1.06-15-9.02-13.94-17.78,1.06-8.76,9.02-15,17.78-13.94,8.61,1.04,17.11,1.99,25.26,2.83,8.78,.9,15.16,8.74,14.27,17.52-.84,8.22-7.78,14.35-15.87,14.35Zm453.22-8.52c-8.22,0-15.21-6.31-15.9-14.65-.73-8.79,5.8-16.51,14.6-17.24,8.5-.71,17-1.43,25.51-2.18,8.81-.76,16.54,5.73,17.31,14.52,.77,8.79-5.73,16.54-14.52,17.31-8.56,.75-17.11,1.48-25.66,2.19-.45,.04-.9,.06-1.34,.06Zm-1430.56-16.01c-7.87,0-14.72-5.81-15.81-13.82-1.19-8.74,4.93-16.79,13.68-17.98l25.46-3.47c8.74-1.2,16.8,4.92,17.99,13.66,1.2,8.74-4.92,16.8-13.66,17.99l-25.48,3.48c-.73,.1-1.46,.15-2.17,.15Zm1669.1-8.49c-7.97,0-14.86-5.95-15.84-14.06-1.06-8.76,5.18-16.72,13.94-17.78,8.52-1.03,17.01-2.07,25.45-3.12,8.76-1.09,16.74,5.12,17.83,13.88,1.09,8.76-5.12,16.74-13.88,17.83-8.48,1.06-17,2.1-25.56,3.13-.65,.08-1.3,.12-1.94,.12Zm-928.56-4.35c-.93,0-1.87-.08-2.81-.25-8.41-1.49-16.82-2.98-25.23-4.43-8.69-1.51-14.52-9.77-13.01-18.47,1.51-8.69,9.76-14.52,18.47-13.01,8.45,1.46,16.91,2.95,25.37,4.46,8.69,1.54,14.48,9.84,12.93,18.52-1.38,7.74-8.11,13.18-15.71,13.18Zm-502.69-17.71c-8.06,0-14.99-6.08-15.86-14.27-.94-8.77,5.41-16.65,14.18-17.59,8.6-.92,17.18-1.81,25.75-2.66,8.78-.88,16.6,5.54,17.47,14.32,.87,8.78-5.54,16.6-14.33,17.47-8.48,.84-16.98,1.72-25.49,2.63-.58,.06-1.15,.09-1.72,.09Zm265.02-12.41c-.21,0-.42,0-.63-.01-2.3-.09-4.59-.17-6.89-.24-6.12-.19-12.26-.33-18.42-.44-8.82-.14-15.86-7.41-15.71-16.24,.14-8.82,7.37-15.87,16.24-15.71,6.31,.1,12.61,.25,18.89,.45,2.38,.07,4.75,.16,7.13,.25,8.82,.34,15.69,7.77,15.35,16.58-.33,8.6-7.42,15.36-15.95,15.36Z"/><path d="M3302.59,1599.3c-7.74,0-14.53-5.63-15.76-13.51-1.36-8.72,4.6-16.89,13.32-18.25,4.23-.66,8.43-1.32,12.59-1.98,8.71-1.38,16.9,4.56,18.28,13.28,1.38,8.72-4.57,16.9-13.28,18.28-4.19,.66-8.41,1.33-12.66,1.99-.84,.13-1.67,.19-2.49,.19Z"/></g><path d="M199.17,419.48c-3.29,0-6.64-.4-10-1.26l-25.59-6.55q-39.11-10.02-62.97-13.65c-10.74-1.64-25.88-3.93-50.15-7.93-22-3.62-36.91-24.4-33.3-46.4,3.61-21.99,24.33-36.95,46.39-33.29,23.81,3.91,38.68,6.18,49.21,7.78,27.86,4.24,29.45,4.65,70.87,15.26l25.49,6.53c21.61,5.51,34.66,27.49,29.16,49.1-4.67,18.26-21.09,30.41-39.11,30.41Z"/><path d="M266.65,269.41c-9.17,0-18.37-3.1-25.92-9.44-57.07-47.88-76.91-64.06-94.77-78.63-22.85-18.65-42.58-34.76-131.67-110.13C-2.72,56.8-4.85,31.32,9.56,14.29,23.95-2.7,49.42-4.87,66.45,9.55c88.54,74.91,108.01,90.81,130.57,109.23,18.02,14.7,38.01,31.02,95.59,79.32,17.09,14.33,19.32,39.79,4.99,56.88-7.98,9.52-19.44,14.43-30.95,14.43Z"/><path d="M414.35,199.49c-16.58,0-32.13-10.3-38.03-26.81-9.96-27.9-13.54-36.17-15.93-41.65-5.3-12.16-6.49-15.61-24.58-78.5-6.17-21.43,6.21-43.81,27.64-49.97,21.41-6.16,43.81,6.2,49.96,27.63,17.25,59.95,17.9,61.44,21.04,68.64,2.82,6.47,7.06,16.24,17.94,46.7,7.49,21.01-3.45,44.1-24.47,51.6-4.48,1.6-9.07,2.36-13.56,2.36Z"/><path d="M4177.86,1421.62c-2.17,0-4.38-.18-6.58-.54-23.81-3.92-38.68-6.18-49.23-7.78-27.86-4.24-29.47-4.65-70.91-15.28l-25.43-6.51c-21.61-5.51-34.66-27.49-29.16-49.1,5.52-21.59,27.46-34.69,49.11-29.15l25.53,6.53q39.15,10.04,63.01,13.67c10.74,1.63,25.9,3.93,50.17,7.93,22,3.62,36.91,24.4,33.3,46.4-3.25,19.78-20.38,33.83-39.8,33.83Z"/><path d="M4194.42,1731.49c-9.21,0-18.47-3.13-26.06-9.55-88.66-75.02-108.11-90.91-130.67-109.31-17.98-14.68-38.01-31.02-95.48-79.23-17.09-14.33-19.32-39.79-4.99-56.88,14.35-17.1,39.8-19.31,56.88-4.99,56.97,47.78,76.83,63.99,94.65,78.54,22.85,18.63,42.56,34.73,131.77,110.21,17.01,14.41,19.14,39.88,4.73,56.91-7.98,9.43-19.38,14.29-30.83,14.29Z"/><path d="M3860.19,1730.52c-17.55,0-33.69-11.52-38.78-29.23-17.25-59.97-17.9-61.46-21.02-68.63-2.82-6.48-7.08-16.26-17.96-46.69-7.49-21.01,3.45-44.11,24.45-51.6,21.04-7.49,44.12,3.43,51.61,24.44,9.96,27.87,13.54,36.15,15.93,41.63,5.3,12.16,6.49,15.6,24.58,78.54,6.17,21.43-6.21,43.8-27.64,49.96-3.73,1.07-7.49,1.59-11.18,1.59Z"/></g></g></svg>