<?xml version="1.0" encoding="utf-8"?>
<!-- Generator: Adobe Illustrator 27.0.0, SVG Export Plug-In . SVG Version: 6.00 Build 0)  -->
<svg version="1.1" id="Livello_2_00000085240160485461708850000012784010217877640627_"
	 xmlns="http://www.w3.org/2000/svg" xmlns:xlink="http://www.w3.org/1999/xlink" x="0px" y="0px" viewBox="0 0 94.7 54.2"
	 style="enable-background:new 0 0 94.7 54.2;" xml:space="preserve">
<g>
	<polygon points="47.1,28.2 51.3,28.2 49.2,23.3 	"/>
	<path d="M87,0H7.8C3.5,0,0,3.5,0,7.8v38.7c0,4.3,3.5,7.8,7.8,7.8H87c4.3,0,7.8-3.5,7.8-7.8V7.8C94.8,3.5,91.3,0,87,0z M21.9,41.5
		L10.1,12.9h8.2l6.6,16.9l6.6-16.9h8.1L27.8,41.5H21.9z M56.8,41.3l-2.6-6.1h-10l-2.6,6.1h-7.9l12.5-28.6h6.1l12.5,28.6H56.8z
		 M83.9,20h-8.1v19.7v0.1v1.5h-1.5h-0.2h-5.8V20h-8.1v-7.1h23.6V20z"/>
</g>
</svg>
